<svg xmlns="http://www.w3.org/2000/svg" width="600" height="800" viewBox="0 0 600 800" role="img" aria-labelledby="title desc">
  <title id="title">Library records management illustration</title>
  <desc id="desc">Dashboard illustration for managing book catalog records, members, issued books, returns, and overdue items.</desc>
  <defs>
    <linearGradient id="bg" x1="64" x2="542" y1="58" y2="740" gradientUnits="userSpaceOnUse">
      <stop stop-color="#F8FAFC"/>
      <stop offset="1" stop-color="#DCE3FF"/>
    </linearGradient>
  </defs>
  <rect width="600" height="800" rx="44" fill="#EEF2F7"/>
  <rect x="58" y="58" width="484" height="684" rx="38" fill="url(#bg)"/>
  <rect x="104" y="104" width="392" height="102" rx="24" fill="#FFFFFF"/>
  <text x="134" y="151" fill="#111827" font-family="Inter, Segoe UI, Arial, sans-serif" font-size="24" font-weight="800">Book Records</text>
  <text x="134" y="179" fill="#64748B" font-family="Inter, Segoe UI, Arial, sans-serif" font-size="15" font-weight="600">Catalog, issue, return and member ledger</text>
  <rect x="392" y="128" width="64" height="52" rx="14" fill="#DCE3FF"/>
  <path d="M408 150h30M408 162h22" stroke="#3F4FC4" stroke-width="6" stroke-linecap="round"/>
  <rect x="104" y="246" width="392" height="250" rx="24" fill="#FFFFFF"/>
  <rect x="130" y="280" width="72" height="20" rx="10" fill="#3F4FC4"/>
  <rect x="130" y="324" width="340" height="1.5" fill="#E2E8F0"/>
  <rect x="130" y="358" width="340" height="1.5" fill="#E2E8F0"/>
  <rect x="130" y="392" width="340" height="1.5" fill="#E2E8F0"/>
  <text x="132" y="345" fill="#111827" font-family="Inter, Segoe UI, Arial, sans-serif" font-size="15" font-weight="700">BK-1042</text>
  <text x="225" y="345" fill="#64748B" font-family="Inter, Segoe UI, Arial, sans-serif" font-size="14">Clean Code</text>
  <text x="382" y="345" fill="#3F4FC4" font-family="Inter, Segoe UI, Arial, sans-serif" font-size="14" font-weight="800">Issued</text>
  <text x="132" y="379" fill="#111827" font-family="Inter, Segoe UI, Arial, sans-serif" font-size="15" font-weight="700">BK-2048</text>
  <text x="225" y="379" fill="#64748B" font-family="Inter, Segoe UI, Arial, sans-serif" font-size="14">Physics Vol. 1</text>
  <text x="382" y="379" fill="#16A34A" font-family="Inter, Segoe UI, Arial, sans-serif" font-size="14" font-weight="800">In shelf</text>
  <text x="132" y="413" fill="#111827" font-family="Inter, Segoe UI, Arial, sans-serif" font-size="15" font-weight="700">BK-3110</text>
  <text x="225" y="413" fill="#64748B" font-family="Inter, Segoe UI, Arial, sans-serif" font-size="14">History</text>
  <text x="382" y="413" fill="#DC2626" font-family="Inter, Segoe UI, Arial, sans-serif" font-size="14" font-weight="800">Overdue</text>
  <rect x="128" y="438" width="134" height="34" rx="12" fill="#EEF2FF"/>
  <text x="150" y="461" fill="#3F4FC4" font-family="Inter, Segoe UI, Arial, sans-serif" font-size="14" font-weight="800">+ Add record</text>
  <rect x="104" y="528" width="118" height="118" rx="22" fill="#3F4FC4"/>
  <text x="134" y="578" fill="#F8FAFC" font-family="Inter, Segoe UI, Arial, sans-serif" font-size="28" font-weight="900">2.4k</text>
  <text x="132" y="610" fill="#DCE3FF" font-family="Inter, Segoe UI, Arial, sans-serif" font-size="15" font-weight="700">Books</text>
  <rect x="242" y="528" width="118" height="118" rx="22" fill="#1E293B"/>
  <text x="273" y="578" fill="#F8FAFC" font-family="Inter, Segoe UI, Arial, sans-serif" font-size="28" font-weight="900">618</text>
  <text x="270" y="610" fill="#CBD5E1" font-family="Inter, Segoe UI, Arial, sans-serif" font-size="15" font-weight="700">Members</text>
  <rect x="380" y="528" width="118" height="118" rx="22" fill="#DCE3FF"/>
  <text x="414" y="578" fill="#3F4FC4" font-family="Inter, Segoe UI, Arial, sans-serif" font-size="28" font-weight="900">72</text>
  <text x="410" y="610" fill="#3F4FC4" font-family="Inter, Segoe UI, Arial, sans-serif" font-size="15" font-weight="800">Loans</text>
</svg>
